<svg width="472" height="62" viewBox="0 0 472 62" fill="none" xmlns="http://www.w3.org/2000/svg">
<rect width="471.137" height="61.8616" fill="white"/>
<path d="M24.7622 8.24319C24.5302 8.92599 24.5302 8.91011 25.4581 16.6114C25.8226 19.7236 26.0877 22.3278 26.038 22.3754C25.9883 22.4231 24.7291 21.772 23.2545 20.9146C20.4379 19.2949 18.6651 18.4851 17.9692 18.4692C17.174 18.4692 16.8095 18.8821 16.8095 19.7554C16.8095 20.6764 17.1077 21.4544 18.9965 25.4559C20.5539 28.7429 20.8024 29.4892 20.4545 29.8067C20.0071 30.2196 18.6651 30.5372 11.7396 31.871C7.97859 32.6014 4.61524 33.3319 4.26731 33.5065C3.09097 34.0464 3.47204 35.015 5.11229 35.6025C5.5762 35.7613 7.97859 36.333 10.4473 36.8729C17.2734 38.3496 21.4486 39.5882 21.4486 40.1439C21.4486 40.2709 20.8687 40.9537 20.1562 41.6842C17.5882 44.3042 16.0142 46.0985 15.8982 46.5272C15.8154 46.8607 15.8651 47.0195 16.1467 47.2418C16.445 47.48 16.5775 47.48 17.2237 47.3053C17.6213 47.1783 19.6592 46.2255 21.7302 45.1775C23.8012 44.1295 25.69 43.2403 25.922 43.1927C26.6013 43.0339 26.8001 43.2879 26.8664 44.3042C26.8995 44.8123 27.032 47.4165 27.1646 50.1C27.496 56.388 27.6948 57.3725 28.6392 57.3725C29.7327 57.3725 30.5611 55.737 32.9966 48.655C34.0404 45.638 34.9848 43.0656 35.1008 42.9545C35.2665 42.7798 35.4321 42.8751 35.9458 43.4309C37.2712 44.8758 40.9328 48.3533 41.3636 48.5756C42.3742 49.0837 42.9375 48.6391 42.7719 47.4641C42.7056 47.0989 42.1091 45.0346 41.4298 42.8433C40.7505 40.6679 40.2038 38.8577 40.2369 38.826C40.2701 38.7942 41.2807 39.0324 42.4571 39.35C45.2902 40.0963 49.8631 41.0014 51.5199 41.1125C52.7294 41.2078 52.8785 41.1919 53.1601 40.8902C53.8063 40.1916 53.4915 39.8422 48.1565 35.0785C46.2181 33.3477 44.6606 31.8392 44.6938 31.744C44.7269 31.6487 45.6547 31.0612 46.7482 30.4578C49.482 28.9334 51.056 27.806 51.3873 27.1232C51.6524 26.5833 51.6524 26.5516 51.3211 26.234C50.8572 25.7735 48.7861 25.5671 46.1186 25.6782C44.9754 25.7259 43.9813 25.7259 43.9316 25.6624C43.8654 25.6147 44.6938 24.6937 45.7707 23.6457C48.869 20.5811 51.4868 17.6753 52.0666 16.6114C52.5305 15.7857 52.2489 15.1346 51.437 15.1346C51.0891 15.1346 47.8086 16.6908 43.2523 18.9932C41.4298 19.9142 39.9056 20.6446 39.8393 20.6129C39.773 20.5811 39.7564 18.9138 39.8061 16.929C39.889 12.8004 39.7564 12.07 38.9943 11.9906C38.431 11.9271 38.315 12.1018 36.36 15.611C34.6866 18.6439 34.0238 19.7395 33.8416 19.7395C33.7753 19.7395 33.444 19.2632 33.0795 18.6598C32.7315 18.0722 31.9362 16.7384 31.3232 15.6904C29.3847 12.4193 27.2143 9.11653 26.535 8.3861C26.0545 7.84622 25.7729 7.67155 25.4249 7.67155C25.0273 7.67155 24.9279 7.76682 24.7622 8.24319ZM26.5681 9.94223C27.6119 11.4507 30.2794 15.7698 31.6049 18.104C32.6984 20.0571 33.328 20.851 33.8085 20.851C34.3718 20.851 35.2996 19.5966 36.8239 16.7543C37.6854 15.1823 38.4807 13.7532 38.6132 13.5944C38.8121 13.3403 38.8452 13.3562 38.8783 13.8643C38.8949 14.166 38.9115 16.0239 38.928 17.9928C38.9446 19.9618 38.928 21.1413 38.928 21.5656C38.928 21.9217 45.0497 19.0806 45.2902 18.9615C48.2891 17.4688 50.824 16.2462 50.9234 16.2462C51.0228 16.2462 51.1057 16.2938 51.1057 16.3573C51.1057 16.659 46.9636 21.1369 44.6772 23.344C43.2855 24.6779 42.1588 25.8529 42.1588 25.9799C42.1588 26.5198 42.5068 26.5675 46.4831 26.5675C48.6536 26.5675 50.4595 26.631 50.5092 26.7104C50.7412 27.0438 48.9849 28.2665 45.9033 29.9179C44.0476 30.9024 43.5671 31.3629 43.7494 32.0298C43.8157 32.3156 45.224 33.6971 47.9743 36.2059C50.2441 38.2543 52.0998 40.001 52.0998 40.0804C52.0998 40.4456 49.8631 40.0486 44.4453 38.7625C39.2263 37.5239 39.1766 37.5239 39.1766 38.5719C39.1766 38.8577 39.5411 40.2074 39.9884 41.5571C41.1316 44.9711 41.8275 47.5276 41.6287 47.5276C41.3801 47.5276 39.7067 45.9556 37.7186 43.8437C35.6641 41.6524 35.3327 41.4142 34.8688 41.6524C34.3552 41.9224 34.0073 42.7163 32.4664 47.2894C30.3623 53.514 29.2356 56.261 28.7551 56.261C28.4404 56.261 28.3078 54.8478 27.993 48.1469C27.8605 45.2093 27.6782 43.1292 27.5622 42.8751C27.0652 41.8271 25.7232 42.0335 22.6083 43.6373C19.2616 45.3522 17.6213 46.1303 17.5219 46.035C17.4059 45.9397 17.9527 45.3204 20.2722 42.9545C22.277 40.8902 22.7243 40.2392 22.4592 39.7628C21.8462 38.6831 18.7314 37.6827 9.8508 35.6978C6.33834 34.9198 5.04602 34.5545 5.04602 34.3481C5.04602 34.1734 5.09572 34.1734 12.0047 32.8396C18.7976 31.5375 19.9077 31.2835 20.819 30.8389C22.1776 30.172 22.0782 29.4733 19.9077 24.8525C18.2178 21.2957 17.7207 20.0095 17.8698 19.6601C18.0189 19.2632 19.2781 19.8189 22.9066 21.8991C26.1042 23.741 26.7835 24.0427 26.9658 23.741C27.0155 23.6775 26.9823 23.2329 26.8995 22.7565C26.6344 21.121 25.5243 9.62466 25.574 8.97362C25.6072 8.64016 25.7232 8.75132 26.5681 9.94223Z" fill="#FF6401"/>
<path d="M28.6392 57.9878C29.099 57.9878 29.5044 57.8033 29.8693 57.4458C30.2122 57.1099 30.5309 56.6115 30.8647 55.9451C31.5345 54.608 32.3631 52.3889 33.578 48.8562L33.772 48.2972C34.2211 47.0076 34.6421 45.8283 34.9739 44.9278C35.1497 44.4508 35.2996 44.0551 35.4146 43.7636C35.4396 43.7901 35.4661 43.8182 35.4939 43.8484C36.1721 44.5875 37.4307 45.8292 38.5666 46.9078C39.1366 47.4491 39.6808 47.9543 40.1115 48.3397C40.3264 48.532 40.5165 48.6975 40.6691 48.8239C40.7997 48.932 40.957 49.0581 41.0814 49.1223L41.0843 49.1239L41.0872 49.1253C41.6498 49.4081 42.3494 49.5606 42.89 49.134C43.4086 48.7247 43.4709 48.0154 43.3811 47.3782L43.3794 47.3662L43.3772 47.3542C43.337 47.1324 43.1592 46.4867 42.9216 45.6672C42.6781 44.8276 42.3581 43.76 42.0175 42.6611L42.0171 42.66C41.6778 41.5733 41.3721 40.5797 41.1557 39.8548C41.1325 39.777 41.1103 39.7024 41.0893 39.6312C41.4377 39.717 41.8548 39.8247 42.2967 39.944L42.3003 39.9449C45.1388 40.6926 49.7488 41.6086 51.4716 41.7259L51.6808 41.742C52.1519 41.7776 52.5037 41.7954 52.7692 41.7601C52.9432 41.7369 53.1082 41.6889 53.2659 41.5966C53.3971 41.5199 53.498 41.4266 53.5772 41.3445L53.6099 41.3101L53.6109 41.309L53.6118 41.3079C53.7927 41.1123 54.0653 40.7816 54.0128 40.2918C53.9687 39.8801 53.7021 39.4949 53.367 39.1067C52.6688 38.2979 51.2152 36.985 48.5663 34.6197C47.6015 33.7582 46.7336 32.9538 46.113 32.3552C45.9113 32.1606 45.7377 31.9897 45.5965 31.8468C45.6142 31.8356 45.6322 31.824 45.6507 31.8123C45.9669 31.6137 46.3854 31.3655 46.8457 31.1075L47.0455 30.9965L47.0466 30.9958L47.0479 30.9951C48.4241 30.2278 49.5238 29.5518 50.3275 28.9746C50.7293 28.6861 51.0669 28.4153 51.3314 28.1635C51.5875 27.9197 51.809 27.6619 51.9395 27.3944C52.0028 27.2654 52.066 27.1361 52.11 27.0211C52.1536 26.9073 52.2053 26.7423 52.1915 26.551C52.1763 26.3392 52.0881 26.1773 51.999 26.0596C51.9219 25.9578 51.823 25.8629 51.7467 25.7898L51.7466 25.7899C51.5113 25.5609 51.1656 25.4302 50.85 25.3438C50.505 25.2494 50.0833 25.1795 49.6103 25.1299C48.662 25.0305 47.4456 25.0072 46.0931 25.0636C45.7787 25.0767 45.4772 25.086 45.2052 25.0914C45.4367 24.8476 45.7078 24.5707 46.0037 24.2788L46.1998 24.0866L46.2016 24.0848L46.2034 24.0831C47.7592 22.5442 49.197 21.0425 50.3211 19.789C51.4264 18.5564 52.2767 17.5115 52.6069 16.9058C52.8844 16.4087 53.0143 15.8313 52.7958 15.3212C52.5571 14.7637 52.0094 14.5194 51.437 14.5194C51.3285 14.5194 51.2285 14.5449 51.1774 14.5587C51.1115 14.5765 51.0395 14.6002 50.9657 14.6265C50.8171 14.6795 50.6298 14.7547 50.4114 14.8476C49.9728 15.0341 49.3793 15.3045 48.6601 15.6442C47.22 16.3243 45.2554 17.2917 42.9749 18.4441C42.0661 18.9034 41.234 19.3138 40.6228 19.6048C40.5434 19.6426 40.4681 19.6782 40.397 19.7115C40.396 19.6438 40.3951 19.5724 40.3944 19.4976C40.3891 18.92 40.3946 18.1543 40.4127 17.3105L40.4212 16.9443V16.9428L40.4213 16.9413C40.4623 14.8951 40.4534 13.6171 40.324 12.8403C40.2594 12.4526 40.1517 12.0951 39.9299 11.8249C39.6803 11.5208 39.3594 11.4111 39.0631 11.3794L39.0632 11.3793C39.0618 11.3791 39.0603 11.3791 39.0588 11.3789C39.0586 11.3789 39.0583 11.3788 39.058 11.3787L39.0579 11.3788C38.8854 11.3596 38.6225 11.3423 38.3377 11.4893C38.0836 11.6205 37.8854 11.8453 37.7009 12.1C37.3295 12.6124 36.7886 13.5776 35.8225 15.3116L35.8219 15.3127L35.8213 15.3138C34.9843 16.8308 34.406 17.8522 34.0161 18.4926C33.9587 18.5868 33.9062 18.6713 33.8583 18.747C33.7794 18.6243 33.6942 18.4875 33.6061 18.3416C33.2551 17.7491 32.4646 16.4232 31.8543 15.3798L31.8525 15.3768C30.8787 13.7336 29.8465 12.0821 28.9713 10.748C28.1166 9.44513 27.3795 8.39497 26.9946 7.97708L26.9022 7.87502C26.4432 7.3763 26.0188 7.05638 25.425 7.05637C25.2017 7.05637 24.8763 7.07526 24.6015 7.31579C24.3667 7.52126 24.2578 7.82051 24.1811 8.04109L24.1804 8.04315L24.1797 8.04531C24.1194 8.22286 24.0544 8.40982 24.0296 8.70409C24.0069 8.97346 24.0183 9.31946 24.0622 9.84644C24.1504 10.9051 24.3844 12.8428 24.8472 16.685C25.0292 18.2382 25.1861 19.6632 25.2912 20.7045C25.3165 20.9543 25.3386 21.1813 25.3574 21.3822C24.8739 21.127 24.2429 20.7776 23.5638 20.3827L23.5624 20.382L23.5612 20.3812C22.1454 19.5671 20.9802 18.9496 20.0743 18.5318C19.6216 18.323 19.2248 18.16 18.8884 18.047C18.5628 17.9377 18.2512 17.8603 17.9833 17.8542L17.9763 17.854H17.9692C17.4703 17.854 16.9818 17.9853 16.6331 18.3739C16.2972 18.7484 16.1943 19.2497 16.1943 19.7554C16.1943 20.3145 16.2925 20.8163 16.6203 21.6708C16.9408 22.5064 17.4983 23.7234 18.4401 25.7186L18.4405 25.7194C19.2232 27.3714 19.6572 28.3447 19.8566 28.9401C19.9365 29.1789 19.9655 29.3209 19.974 29.4001C19.9201 29.4328 19.8272 29.4793 19.6665 29.5382C19.4045 29.634 19.0068 29.7475 18.3845 29.8949C17.1427 30.189 15.0897 30.5992 11.6233 31.2668L11.6223 31.267C9.7384 31.6329 7.95251 31.9991 6.5923 32.2961C5.9127 32.4445 5.33603 32.5763 4.90526 32.6827C4.69033 32.7358 4.50731 32.7836 4.36407 32.8248C4.24795 32.8582 4.1121 32.8998 4.01067 32.9476V32.9474C3.65206 33.112 3.33373 33.3434 3.14291 33.6659C2.93713 34.0137 2.91819 34.4047 3.06239 34.7652C3.19662 35.1007 3.4569 35.3777 3.75906 35.5993C4.06665 35.8248 4.45454 36.0205 4.90481 36.1817L4.91307 36.1846C5.41917 36.3578 7.86597 36.9381 10.3158 37.4739L10.3165 37.474L10.3172 37.4742C13.7238 38.2112 16.457 38.8862 18.3325 39.4435C19.2734 39.7231 19.9802 39.9677 20.4435 40.1699C20.513 40.2002 20.5746 40.2288 20.629 40.2552C20.6192 40.267 20.6093 40.2792 20.5989 40.2914C20.3771 40.5549 20.0648 40.8969 19.7158 41.2546C18.4284 42.5681 17.3846 43.6802 16.6455 44.5213C16.2766 44.9413 15.9777 45.3003 15.7608 45.5868C15.6526 45.7296 15.5594 45.8616 15.4866 45.9789C15.4217 46.0832 15.3436 46.2216 15.3043 46.3666L15.3026 46.3727L15.3011 46.3789C15.2505 46.5825 15.2085 46.8467 15.3035 47.125C15.3978 47.4012 15.5914 47.5869 15.7628 47.7225C15.95 47.8721 16.1814 48.0248 16.5225 48.0427C16.7567 48.055 17.0113 47.9979 17.2721 47.9292L17.3977 47.8956L17.4109 47.8914C17.6575 47.8126 18.3102 47.5206 19.1115 47.1435C19.935 46.7558 20.9675 46.253 22.008 45.7264C23.0393 45.2045 24.0243 44.7227 24.7787 44.3661C25.1562 44.1877 25.4733 44.0419 25.7081 43.9387C25.8259 43.8869 25.9191 43.8475 25.9872 43.8205C26.0514 43.795 26.0706 43.7898 26.0625 43.7916C26.1076 43.7811 26.1445 43.7744 26.1742 43.7702C26.1784 43.7844 26.1829 43.8009 26.1874 43.8201C26.2146 43.9357 26.2367 44.1032 26.2524 44.3442C26.2852 44.8461 26.4174 47.4432 26.5501 50.1303L26.5502 50.1314L26.5503 50.1324C26.715 53.2589 26.8488 55.1296 27.069 56.2164C27.1774 56.7514 27.3243 57.198 27.5817 57.5111C27.8852 57.8804 28.2722 57.9878 28.6392 57.9878ZM38.5613 38.5719C38.5613 38.7206 38.6005 38.9226 38.6395 39.1008C38.6836 39.302 38.7459 39.5502 38.8209 39.8266C38.9712 40.3804 39.1776 41.0662 39.4044 41.7507L39.4047 41.7516L39.405 41.7525C39.9744 43.4529 40.4304 44.9339 40.7184 45.9851C40.7205 45.9927 40.7224 46.0003 40.7245 46.0079C40.0411 45.3633 39.1442 44.4607 38.1673 43.423L38.1674 43.4229C37.1534 42.3413 36.518 41.6897 36.0706 41.3481C35.8448 41.1756 35.6019 41.0296 35.3297 40.9807C35.0236 40.9257 34.7757 41.0086 34.5878 41.1051L34.5852 41.1064L34.5826 41.1079C34.1172 41.3525 33.8322 41.8085 33.4872 42.6153C33.1319 43.4461 32.6516 44.813 31.8834 47.093C30.8319 50.2035 30.0297 52.4299 29.4332 53.8747C29.2739 54.2607 29.1316 54.5848 29.0055 54.8516C28.9993 54.7906 28.9929 54.7266 28.9866 54.6593C28.8764 53.4856 28.7652 51.4726 28.6076 48.118L28.6075 48.1181C28.541 46.6445 28.462 45.3823 28.3845 44.4536C28.3459 43.9898 28.3072 43.6041 28.2701 43.3146C28.2516 43.1705 28.2327 43.0438 28.2133 42.9404C28.1977 42.8579 28.1714 42.7281 28.1219 42.6196L28.1201 42.6155L28.1181 42.6114C27.9402 42.2362 27.6613 41.9306 27.2554 41.7595C26.8677 41.5962 26.4295 41.5836 25.9734 41.6537C25.0776 41.7915 23.8843 42.2884 22.3267 43.0903C21.2898 43.6216 20.4195 44.0616 19.7096 44.4127C19.9981 44.1148 20.3302 43.7741 20.7115 43.3852L20.7136 43.3831C21.7101 42.357 22.3606 41.6417 22.7243 41.1111C22.9065 40.8453 23.0505 40.579 23.1116 40.307C23.1792 40.0058 23.1398 39.7205 22.9968 39.4636L22.9956 39.4614L22.9942 39.4591C22.7554 39.0384 22.3233 38.705 21.7697 38.4088C21.2052 38.1068 20.4407 37.8052 19.444 37.4841C17.4487 36.8413 14.4247 36.0897 9.98497 35.0974L9.98389 35.0972C8.74783 34.8234 7.79421 34.6023 7.07847 34.4224C8.10179 34.2188 9.68086 33.9148 12.1204 33.4438C15.5136 32.7934 17.5008 32.4023 18.7537 32.1176C19.9314 31.8501 20.4968 31.6689 20.9908 31.4386L21.0887 31.3918L21.0894 31.3914L21.0901 31.3912C21.4534 31.2128 21.8312 30.9825 22.0735 30.603C22.3297 30.2019 22.3711 29.7397 22.2951 29.2365C22.2207 28.7446 22.0245 28.1485 21.7272 27.413C21.427 26.6703 21.0076 25.747 20.4646 24.5909L20.464 24.5898L20.4634 24.5885C19.6184 22.81 19.0802 21.6168 18.7721 20.8293C18.6912 20.6227 18.6286 20.4498 18.5812 20.3059C18.6561 20.336 18.7401 20.3714 18.8338 20.413C19.5878 20.7477 20.7837 21.3913 22.5994 22.4322C24.191 23.349 25.1881 23.9015 25.8134 24.1844C26.1156 24.3211 26.395 24.4256 26.64 24.4514C26.7706 24.4651 26.9339 24.4616 27.1001 24.3947C27.2719 24.3255 27.3972 24.2082 27.4809 24.0773C27.5573 23.9611 27.5786 23.8481 27.5847 23.8163C27.5962 23.7565 27.6007 23.6994 27.6027 23.6548C27.6067 23.5636 27.6031 23.4612 27.5961 23.3609C27.582 23.1585 27.5502 22.9096 27.5067 22.6581L27.5068 22.658C27.3783 21.8651 27.0366 18.6078 26.7311 15.4369C26.5791 13.8583 26.4369 12.3116 26.3359 11.1199C26.3216 10.9511 26.3082 10.7896 26.2957 10.6363C27.4494 12.3602 29.8381 16.2388 31.0681 18.4046C31.6173 19.3854 32.0685 20.1097 32.4562 20.5943C32.65 20.8366 32.8469 21.0432 33.0523 21.1933C33.2582 21.3436 33.513 21.4662 33.8085 21.4662L33.8421 21.4657C34.1888 21.4542 34.4817 21.2667 34.7021 21.0788C34.9435 20.8729 35.1921 20.5849 35.4511 20.2335C35.9704 19.5288 36.5992 18.4745 37.3633 17.05C37.6932 16.4482 38.0127 15.8685 38.2886 15.3738C38.2965 16.106 38.3048 17.0342 38.3129 17.998C38.3294 19.9647 38.3128 21.1309 38.3128 21.5656C38.3128 21.6881 38.3482 21.8232 38.4359 21.9431C38.519 22.0568 38.6219 22.1197 38.6992 22.1536C38.8371 22.2138 38.9645 22.2128 39.0143 22.2114C39.1328 22.208 39.2551 22.1801 39.347 22.1561C39.5479 22.1036 39.8131 22.0117 40.1057 21.9012C40.6984 21.6774 41.4827 21.3468 42.2649 21.0056C43.8282 20.3238 45.4294 19.5791 45.5633 19.5128L45.5644 19.5122C46.9388 18.8281 48.215 18.2013 49.2025 17.7234C48.9259 18.0321 48.6203 18.3679 48.2965 18.7191C46.9797 20.1473 45.3814 21.8091 44.2499 22.9014C43.5503 23.5719 42.9146 24.2051 42.4515 24.6893C42.2207 24.9306 42.0274 25.1405 41.8892 25.3021C41.8212 25.3815 41.7583 25.4588 41.7095 25.5271C41.6858 25.5602 41.6565 25.6036 41.6305 25.6517C41.6218 25.6677 41.5436 25.8019 41.5436 25.98C41.5436 26.1753 41.5739 26.5112 41.8774 26.7686C42.1184 26.9732 42.4457 27.0448 42.747 27.0858C43.3832 27.1723 44.5176 27.1826 46.4832 27.1826C47.5426 27.1826 48.512 27.198 49.2279 27.2227C49.1862 27.2526 49.1427 27.2834 49.0973 27.315C48.3306 27.8489 47.145 28.5544 45.6126 29.3756C44.6935 29.8633 44.0333 30.2611 43.6323 30.6528C43.4224 30.8577 43.2505 31.0916 43.1618 31.3706C43.076 31.6406 43.0845 31.9013 43.1435 32.1438L43.156 32.192C43.1979 32.3488 43.2891 32.4799 43.3372 32.547C43.4045 32.6408 43.4909 32.7454 43.5894 32.8571C43.7877 33.0819 44.0677 33.3714 44.4233 33.7222C45.1363 34.4256 46.1832 35.4048 47.5596 36.6605L47.5609 36.6616L47.5621 36.6627C48.6947 37.6848 49.7229 38.6307 50.4669 39.3299C50.5175 39.3774 50.5665 39.424 50.6143 39.4691C50.5487 39.4583 50.4804 39.4469 50.4093 39.4345C49.2695 39.2369 47.5309 38.8583 45.0858 38.2818L44.5874 38.1638C43.2852 37.8548 42.2957 37.6207 41.5488 37.4612C40.8131 37.304 40.2687 37.209 39.8758 37.1949C39.514 37.182 39.0356 37.226 38.7556 37.6418C38.6338 37.8226 38.5946 38.0154 38.578 38.1563C38.5614 38.2964 38.5613 38.4479 38.5613 38.5719ZM50.9234 16.6534C51.041 16.4979 51.1056 16.395 51.1057 16.3573L51.1047 16.3456C51.0953 16.288 51.0166 16.2462 50.9234 16.2462L50.9234 16.6534ZM16.8095 19.7554C16.8095 18.8821 17.174 18.4692 17.9692 18.4692C18.6434 18.4846 20.3282 19.2451 22.9935 20.7651L23.2545 20.9146C24.729 21.772 25.9881 22.423 26.038 22.3754C26.0877 22.3278 25.8226 19.7236 25.4581 16.6114C24.5302 8.91011 24.5302 8.92599 24.7622 8.24319C24.9175 7.79664 25.0146 7.68499 25.3538 7.67278L25.4249 7.67155C25.7729 7.67155 26.0545 7.84622 26.535 8.3861C27.1931 9.09375 29.2505 12.2155 31.1408 15.3838L31.3232 15.6904C31.9362 16.7384 32.7315 18.0722 33.0795 18.6598C33.444 19.2632 33.7753 19.7395 33.8416 19.7395C34.0238 19.7395 34.6866 18.6439 36.36 15.611C38.315 12.1018 38.431 11.9271 38.9943 11.9906C39.7564 12.07 39.889 12.8004 39.8061 16.929C39.7564 18.9138 39.773 20.5811 39.8393 20.6129C39.9058 20.6445 41.43 19.9141 43.2523 18.9932C47.8086 16.6908 51.0891 15.1346 51.437 15.1346C52.2489 15.1346 52.5305 15.7857 52.0666 16.6114C51.5049 17.642 49.0306 20.4013 46.0598 23.3589L45.7707 23.6457C44.6938 24.6937 43.8654 25.6147 43.9316 25.6624C43.9813 25.7259 44.9754 25.7259 46.1186 25.6782C48.7861 25.5671 50.8572 25.7735 51.3211 26.234C51.6524 26.5516 51.6524 26.5833 51.3873 27.1232C51.056 27.806 49.482 28.9334 46.7482 30.4578C45.6717 31.0518 44.7557 31.6305 44.696 31.7392L44.6938 31.744C44.6627 31.8333 46.0296 33.1647 47.7978 34.7569L48.1565 35.0785C53.4915 39.8422 53.8063 40.1916 53.1601 40.8902C52.8785 41.1919 52.7294 41.2078 51.5199 41.1125C49.8631 41.0014 45.2902 40.0963 42.4571 39.35C41.2993 39.0374 40.302 38.8018 40.2392 38.8247L40.2369 38.826C40.208 38.8539 40.623 40.2433 41.1822 42.0474L41.4298 42.8433C42.1091 45.0346 42.7056 47.0989 42.7719 47.4641C42.9375 48.6391 42.3742 49.0837 41.3636 48.5756L41.341 48.5628C40.8188 48.2451 37.2505 44.8533 35.9458 43.4309L35.8534 43.332C35.4262 42.8799 35.2668 42.7961 35.1163 42.9389L35.1008 42.9545C34.9848 43.0656 34.0404 45.638 32.9966 48.655C30.5992 55.6263 29.759 57.32 28.6903 57.3713L28.6392 57.3725C27.6948 57.3725 27.496 56.388 27.1646 50.1L27.0668 48.1338C26.972 46.2454 26.8912 44.6853 26.8664 44.3042C26.8001 43.2879 26.6013 43.0339 25.922 43.1927C25.7045 43.2373 24.0309 44.0217 22.1161 44.9831L21.7302 45.1775C19.7239 46.1928 17.7487 47.1187 17.2657 47.291L17.2237 47.3053C16.5775 47.48 16.445 47.48 16.1467 47.2418C15.8651 47.0195 15.8154 46.8607 15.8982 46.5272C16.0142 46.0985 17.5882 44.3042 20.1562 41.6842C20.8687 40.9537 21.4486 40.2709 21.4486 40.1439L21.4478 40.1308C21.3831 39.5688 17.22 38.3381 10.4473 36.8729C7.97859 36.333 5.5762 35.7613 5.11229 35.6025C3.47204 35.015 3.09097 34.0464 4.26731 33.5065C4.61524 33.3319 7.97859 32.6014 11.7396 31.871C18.665 30.5372 20.0071 30.2196 20.4545 29.8067L20.4703 29.7916C20.7943 29.4653 20.5296 28.6916 18.9965 25.4559C17.1077 21.4544 16.8095 20.6764 16.8095 19.7554ZM39.1769 38.4768C39.1847 37.5251 39.3893 37.5626 44.4453 38.7625C49.8631 40.0486 52.0998 40.4456 52.0998 40.0804L52.0984 40.0755C52.0418 39.9464 50.2087 38.2224 47.9743 36.2059C45.224 33.6971 43.8157 32.3156 43.7494 32.0298C43.5671 31.3629 44.0476 30.9024 45.9033 29.9179C48.9849 28.2665 50.7412 27.0438 50.5092 26.7104L50.5056 26.7066C50.403 26.629 48.6196 26.5675 46.4831 26.5675L45.7793 26.5668C42.4647 26.5595 42.1589 26.486 42.1588 25.9799C42.1588 25.8529 43.2855 24.6779 44.6772 23.344C46.678 21.4126 50.0996 17.7425 50.9234 16.6534L50.9234 16.2462L50.917 16.247C50.7451 16.2842 48.2424 17.4921 45.2902 18.9615C45.0495 19.0807 38.9281 21.9217 38.928 21.5656C38.928 21.1413 38.9446 19.9618 38.928 17.9928C38.9115 16.0239 38.8949 14.166 38.8783 13.8643C38.8452 13.3562 38.8121 13.3403 38.6132 13.5944C38.4807 13.7532 37.6854 15.1823 36.8239 16.7543C35.2996 19.5966 34.3718 20.851 33.8085 20.851C33.328 20.851 32.6984 20.0571 31.6049 18.104L31.4767 17.8795C30.1143 15.5026 27.5793 11.4036 26.5681 9.94223C25.7232 8.75132 25.6072 8.64016 25.574 8.97362C25.5244 9.625 26.6344 21.121 26.8995 22.7565C26.9823 23.2328 27.0154 23.6774 26.9658 23.741C26.7835 24.0427 26.1042 23.741 22.9066 21.8991C19.2781 19.8189 18.0189 19.2632 17.8698 19.6601C17.7301 19.9877 18.1582 21.1386 19.6047 24.2119L19.9077 24.8525C22.0782 29.4733 22.1776 30.172 20.819 30.8389C19.9647 31.2557 18.9356 31.5051 13.2131 32.6075L12.0047 32.8396C5.09572 34.1734 5.04602 34.1734 5.04602 34.3481C5.04602 34.5416 6.18185 34.8747 9.21802 35.5567L9.8508 35.6978C18.662 37.6672 21.7972 38.6673 22.4444 39.7375L22.4592 39.7628C22.7243 40.2392 22.277 40.8902 20.2722 42.9545C17.989 45.2834 17.4235 45.9199 17.517 46.0301L17.5219 46.035C17.6213 46.1303 19.2616 45.3522 22.6083 43.6373C25.6745 42.0586 27.0228 41.8339 27.5383 42.8269L27.5622 42.8751C27.6782 43.1292 27.8605 45.2093 27.993 48.1469C28.2092 52.7479 28.3394 54.856 28.5017 55.7254C28.4929 55.7329 28.4926 55.7346 28.5018 55.7259C28.5758 56.1223 28.6565 56.261 28.7551 56.261C29.2356 56.261 30.3623 53.514 32.4664 47.2894C34.0073 42.7163 34.3552 41.9224 34.8688 41.6524C35.3327 41.4142 35.6641 41.6524 37.7186 43.8437C39.7067 45.9556 41.3801 47.5276 41.6287 47.5276C41.8273 47.5272 41.1315 44.9709 39.9884 41.5571L39.9056 41.3044C39.4969 40.0429 39.1766 38.8399 39.1766 38.5719L39.1769 38.4768Z" fill="#FF6401"/>
<path d="M31.5227 23.7885C29.1037 24.376 26.3037 26.3132 24.8954 28.3775C24.1995 29.4255 23.5368 31.2357 23.3711 32.633C22.8741 36.5551 26.5688 39.7944 31.0588 39.3657C35.615 38.9211 40.1216 35.2213 40.6518 31.4897C41.066 28.4886 39.4589 25.4399 36.7582 24.1695C35.8138 23.7249 35.4825 23.6614 34.0742 23.6138C33.047 23.582 32.1191 23.6455 31.5227 23.7885ZM36.2446 25.1223C37.3216 25.6304 38.5476 26.8213 39.1275 27.9487C39.5417 28.7903 39.5914 29.0285 39.5914 30.537C39.5914 32.0614 39.5417 32.2837 39.1109 33.157C38.5476 34.2527 36.9239 35.8882 35.4825 36.7933C30.4292 39.9691 24.4315 38.0636 24.4315 33.2999C24.4315 31.2357 25.5415 28.5204 26.9001 27.2183C27.6291 26.5355 30.1309 25.2493 31.4067 24.9C32.7819 24.5348 35.234 24.6459 36.2446 25.1223Z" fill="#FF6401"/>
<path d="M22.8463 32.5708C22.2989 36.914 26.3769 40.3422 31.1077 39.8904L31.1087 39.8904C33.5045 39.6566 35.8665 38.5717 37.6985 37.0677C39.4955 35.5923 40.8404 33.664 41.1583 31.6593L41.1726 31.5638L41.1728 31.5628L41.1729 31.5617C41.6175 28.3401 39.8981 25.0643 36.9815 23.6924L36.9816 23.6923C36.4975 23.4644 36.1337 23.3162 35.695 23.2261C35.2687 23.1386 34.7918 23.1104 34.0908 23.0866H34.09L34.0893 23.0866C33.0422 23.0542 32.0609 23.1168 31.3986 23.2755L31.397 23.2759C28.851 23.8942 25.9403 25.9084 24.4586 28.0802L24.4567 28.0829L24.4548 28.0856C23.7109 29.2061 23.0211 31.0957 22.8462 32.5708L22.8463 32.5708ZM31.0576 39.3655C26.5676 39.7942 22.8729 36.555 23.3699 32.6329C23.5356 31.2355 24.1983 29.4253 24.8941 28.3773C26.3024 26.313 29.1025 24.3759 31.5215 23.7883C32.0806 23.6544 32.9311 23.5901 33.8816 23.6088L34.073 23.6137C35.4812 23.6613 35.8126 23.7248 36.757 24.1694C39.4365 25.4298 41.0396 28.441 40.6599 31.4192L40.6506 31.4896C40.1204 35.2212 35.6138 38.9209 31.0576 39.3655ZM24.4302 33.2998C24.4303 38.0635 30.428 39.969 35.4813 36.7932C36.9227 35.8881 38.5464 34.2526 39.1097 33.1569C39.5405 32.2836 39.5902 32.0612 39.5902 30.5369L39.5895 30.2685C39.5826 28.9962 39.5146 28.7376 39.1263 27.9486C38.5464 26.8212 37.3203 25.6303 36.2434 25.1222L36.195 25.1001C35.1564 24.6424 32.7592 24.5404 31.4055 24.8999C30.1298 25.2492 27.628 26.5354 26.8989 27.2182C25.5403 28.5202 24.4302 31.2356 24.4302 33.2998ZM24.9576 33.2998C24.9576 32.3526 25.2147 31.226 25.6436 30.1719C26.0726 29.1172 26.6528 28.186 27.2602 27.6024C27.566 27.3164 28.3129 26.8532 29.1884 26.4029C30.0534 25.958 30.9595 25.5688 31.5446 25.4086C32.1611 25.2456 33.0572 25.182 33.937 25.2222C34.8308 25.2631 35.6106 25.4068 36.0186 25.5992C36.9852 26.0553 38.1253 27.1588 38.655 28.1855C38.8564 28.595 38.9444 28.81 38.9948 29.0869C39.049 29.3857 39.0629 29.7746 39.0629 30.5369C39.0629 31.3076 39.0489 31.695 38.9931 31.9943C38.9411 32.2727 38.85 32.4911 38.6387 32.9196C38.3924 33.3969 37.8898 34.0333 37.2512 34.6743C36.6165 35.3113 35.881 35.9195 35.2008 36.3465L35.2007 36.3467C32.7893 37.8621 30.1863 38.1437 28.22 37.521C26.2702 36.9036 24.9576 35.4143 24.9576 33.2998Z" fill="#FF6401"/>
<path d="M33.6974 28.2434C33.3826 28.3546 33.4324 29.0533 33.7637 29.2279C34.3767 29.5455 34.9401 28.7992 34.443 28.3228C34.2276 28.1164 34.0454 28.1005 33.6974 28.2434Z" fill="#FF6401"/>
<path d="M33.6 29.54C34.07 29.7835 34.5478 29.6178 34.7986 29.2845C35.0518 28.948 35.072 28.4406 34.6843 28.069C34.5428 27.9333 34.3741 27.825 34.1539 27.8024C33.9498 27.7814 33.7512 27.8405 33.5619 27.9183V27.9184C33.3723 27.9916 33.2598 28.1434 33.2012 28.286C33.1416 28.4311 33.1256 28.5907 33.1356 28.736C33.154 29.0035 33.2775 29.37 33.5978 29.5389L33.5989 29.5395L33.6 29.54ZM34.441 28.3228C34.9381 28.7992 34.3747 29.5455 33.7617 29.2279C33.4303 29.0532 33.3807 28.3545 33.6954 28.2434C34.0325 28.1049 34.2141 28.1156 34.4209 28.3041L34.441 28.3228Z" fill="#FF6401"/>
<path d="M28.413 30.5778C28.2308 31.0224 28.4296 31.3876 28.8769 31.4352C29.3905 31.4988 29.6722 30.9747 29.3408 30.5937C29.0757 30.292 28.529 30.292 28.413 30.5778Z" fill="#FF6401"/>
<path d="M28.8396 31.7846C29.2284 31.8305 29.5686 31.6529 29.7342 31.3496C29.9008 31.0444 29.864 30.6596 29.606 30.3629L29.6055 30.3622L29.6048 30.3616C29.3958 30.1236 29.0915 30.0167 28.8247 30.0138C28.575 30.0111 28.2241 30.108 28.0872 30.4455L28.0873 30.4456C27.9678 30.7379 27.9543 31.0545 28.0998 31.3229C28.2482 31.5968 28.5247 31.7513 28.8396 31.7848V31.7846ZM29.3408 30.5936C29.6721 30.9747 29.3905 31.4987 28.8768 31.4351L28.8356 31.4298C28.4175 31.3646 28.2364 31.0084 28.4129 30.5777C28.5253 30.3008 29.0419 30.2922 29.3151 30.5662L29.3408 30.5936Z" fill="#FF6401"/>
<path d="M33.8066 31.4497C33.9077 31.4757 33.9879 31.5312 34.043 31.5766C34.1019 31.6254 34.1589 31.6852 34.2119 31.7475L34.2158 31.7524C34.3279 31.8897 34.4162 32.0791 34.4844 32.2671C34.5551 32.4622 34.615 32.6861 34.6611 32.9136C34.7515 33.3589 34.7977 33.8674 34.7383 34.2378L34.7373 34.2407V34.2446L34.7236 34.313C34.5797 35.0119 34.1914 35.5424 33.6318 35.7895C33.0558 36.0438 32.3724 35.965 31.7266 35.5796C31.3106 35.3328 30.9401 34.8942 30.7119 34.4809C30.5968 34.2725 30.5056 34.0499 30.4688 33.8403C30.439 33.6709 30.4338 33.4436 30.5537 33.2524L30.6133 33.1733C30.6557 33.1246 30.7102 33.0648 30.7715 33.0181C30.8333 32.9709 30.9508 32.8995 31.1074 32.9175C31.2574 32.9348 31.3549 33.0252 31.4043 33.0786C31.4564 33.1349 31.5023 33.2033 31.541 33.2651L31.543 33.2671C31.7175 33.5506 31.9473 33.8348 32.1797 34.0649C32.415 34.2979 32.6245 34.4478 32.7578 34.5034C32.8907 34.5492 32.9358 34.5516 32.9453 34.5513C32.9492 34.5492 32.9589 34.5429 32.9756 34.5288C33.0063 34.5028 33.0482 34.4597 33.1104 34.3852C33.2099 34.2659 33.2488 34.1919 33.2676 34.0444C33.2909 33.861 33.2798 33.578 33.2295 33.0395V33.0386L33.2285 33.0366C33.2033 32.7384 33.1903 32.4881 33.1914 32.2876C33.1925 32.0979 33.206 31.9147 33.2559 31.7729C33.2809 31.7017 33.3297 31.598 33.4307 31.522C33.5494 31.4327 33.6886 31.4194 33.8066 31.4497ZM32.4795 35.522C32.6385 35.5645 32.7931 35.5866 32.9424 35.5845C32.7931 35.5865 32.6385 35.5646 32.4795 35.522ZM31.9062 35.2778C31.9822 35.3232 32.0583 35.3628 32.1338 35.3979C32.0586 35.3629 31.983 35.323 31.9072 35.2778C31.8782 35.2606 31.85 35.2407 31.8213 35.2212C31.8497 35.2406 31.8775 35.2608 31.9062 35.2778ZM30.9834 33.2983C30.9534 33.3214 30.9197 33.3568 30.8789 33.4038C30.6083 33.7063 31.1024 34.661 31.7158 35.144C31.1027 34.6608 30.6094 33.7062 30.8799 33.4038C30.9204 33.3572 30.9536 33.3214 30.9834 33.2983ZM33.5449 32.3364C33.5458 32.4903 33.5531 32.6779 33.5703 32.8999L33.5791 33.0073C33.6785 34.0707 33.6458 34.2934 33.3809 34.6108C33.2152 34.8093 33.1072 34.8956 32.9609 34.9018C33.1077 34.896 33.2158 34.8098 33.3818 34.6108C33.6467 34.2934 33.6794 34.0708 33.5801 33.0073C33.5573 32.7376 33.546 32.5145 33.5449 32.3364ZM34.3965 34.1431L34.3994 34.1225C34.4007 34.1114 34.4012 34.0998 34.4023 34.0884C34.4005 34.107 34.3988 34.1253 34.3965 34.1431ZM34.4121 33.8755C34.4122 33.8578 34.4114 33.8399 34.4111 33.8218C34.4114 33.8399 34.4122 33.8578 34.4121 33.8755ZM31.2334 33.436L31.2158 33.4097C31.195 33.3782 31.1758 33.3524 31.1582 33.3315C31.1806 33.358 31.2056 33.3923 31.2334 33.436ZM31.1357 33.3071C31.1309 33.3023 31.1258 33.2983 31.1211 33.2944C31.1259 33.2983 31.1308 33.3023 31.1357 33.3071ZM31.0254 33.2739C31.0144 33.2783 31.0032 33.2849 30.9912 33.2934C31.0031 33.2849 31.0144 33.2784 31.0254 33.2739ZM31.0996 33.2788C31.0927 33.275 31.0859 33.2729 31.0791 33.271C31.086 33.2728 31.0927 33.275 31.0996 33.2788ZM31.0342 33.272C31.0443 33.2688 31.0537 33.2665 31.0635 33.2671C31.0537 33.2664 31.0443 33.2689 31.0342 33.272ZM34.3105 32.9546C34.3042 32.9243 34.2959 32.8946 34.2891 32.8647C34.2959 32.8946 34.3042 32.9243 34.3105 32.9546ZM33.5527 32.1001C33.5486 32.1526 33.5445 32.2117 33.5439 32.2778C33.5445 32.2117 33.5486 32.1526 33.5527 32.1001ZM33.6133 31.8364C33.5866 31.8779 33.568 31.9454 33.5566 32.0405C33.5679 31.9456 33.5868 31.8779 33.6133 31.8364ZM33.667 31.7915C33.6595 31.7939 33.6523 31.7966 33.6455 31.8013C33.6522 31.7966 33.6596 31.794 33.667 31.7915ZM33.7412 31.7993C33.734 31.7962 33.7275 31.7924 33.7207 31.7905C33.7275 31.7923 33.7339 31.7962 33.7412 31.7993ZM33.6797 31.7876C33.6896 31.786 33.6999 31.7875 33.7109 31.7895C33.6999 31.7874 33.6896 31.7861 33.6797 31.7876ZM33.6328 31.813C33.626 31.8197 33.6193 31.8271 33.6133 31.8364C33.6192 31.8271 33.6261 31.8197 33.6328 31.813Z" fill="#FF6401"/>
<path d="M73.6933 30.8127C76.0733 32.5127 77.1047 34.6661 76.7873 37.2727C76.5153 39.6754 75.5973 41.4547 74.0333 42.6107C73.4893 43.0187 72.8773 43.2907 72.1973 43.4267C71.54 43.5627 70.9507 43.6081 70.4293 43.5627C69.9307 43.5174 69.262 43.4267 68.4233 43.2907C67.6073 43.1774 66.9727 43.1094 66.5193 43.0867C66.1113 43.0414 65.726 42.8941 65.3633 42.6447C65.0233 42.4181 64.808 42.1007 64.7173 41.6927C64.4907 40.2421 64.3887 39.0634 64.4113 38.1567C64.434 37.2274 64.4907 36.0261 64.5813 34.5527C64.672 33.0567 64.6947 31.8554 64.6493 30.9487C64.3093 25.3954 64.1393 21.1794 64.1393 18.3007C64.1393 17.5527 64.434 17.0314 65.0233 16.7367C65.6353 16.4421 66.236 16.4307 66.8253 16.7027C66.848 16.7027 66.882 16.7027 66.9273 16.7027C66.9953 16.7027 67.0407 16.7027 67.0633 16.7027C67.358 16.7707 67.8 16.8727 68.3893 17.0087C68.9787 17.1447 69.4207 17.2467 69.7153 17.3147C70.0327 17.3827 70.4633 17.4961 71.0073 17.6547C71.574 17.7907 72.0047 17.9267 72.2993 18.0627C72.6167 18.1761 73.002 18.3461 73.4553 18.5727C73.9087 18.7767 74.26 18.9921 74.5093 19.2187C74.7587 19.4454 75.042 19.7174 75.3593 20.0347C75.6767 20.3521 75.9147 20.6921 76.0733 21.0547C76.2547 21.4174 76.402 21.8367 76.5153 22.3127C76.6513 22.7887 76.7307 23.3101 76.7533 23.8767C76.7987 24.9194 76.674 25.9734 76.3793 27.0387C76.1073 28.1041 75.6653 28.9994 75.0533 29.7247C74.668 30.2007 74.2147 30.5634 73.6933 30.8127ZM72.8093 25.9507C72.9907 25.4294 73.0927 24.9534 73.1153 24.5227C73.138 24.0921 73.0927 23.7181 72.9793 23.4007C72.866 23.0834 72.6733 22.7887 72.4013 22.5167C72.1293 22.2447 71.8347 22.0294 71.5173 21.8707C71.2227 21.6894 70.8487 21.5194 70.3953 21.3607C69.9647 21.2021 69.568 21.0774 69.2053 20.9867C68.8427 20.8961 68.412 20.8054 67.9133 20.7147C67.9587 23.4801 68.0607 26.0074 68.2193 28.2967C68.3327 28.2741 68.582 28.2287 68.9673 28.1607C69.3753 28.0701 69.6587 28.0021 69.8173 27.9567C69.976 27.9114 70.214 27.8434 70.5313 27.7527C70.8713 27.6621 71.1207 27.5714 71.2793 27.4807C71.4607 27.3901 71.6647 27.2767 71.8913 27.1407C72.118 26.9821 72.2993 26.8007 72.4353 26.5967C72.5713 26.3927 72.696 26.1774 72.8093 25.9507ZM73.0133 37.1707C73.1947 36.5587 73.172 35.9921 72.9453 35.4707C72.7187 34.9267 72.3333 34.4621 71.7893 34.0767C71.268 33.6914 70.724 33.3741 70.1573 33.1247C69.5907 32.8754 68.9787 32.6601 68.3213 32.4787C68.2987 32.7734 68.242 33.5441 68.1513 34.7907C68.0833 36.0374 68.0493 36.8194 68.0493 37.1367C68.072 37.4314 68.106 38.1794 68.1513 39.3807C70.9393 39.4261 72.56 38.6894 73.0133 37.1707ZM95.1489 39.1767C95.2396 39.7207 95.1716 40.2081 94.9449 40.6387C94.7183 41.0694 94.3556 41.3527 93.8569 41.4887C93.3809 41.6247 92.8936 41.5681 92.3949 41.3187C91.8963 41.0467 91.6129 40.6727 91.5449 40.1967C91.5223 40.0607 91.4543 39.9361 91.3409 39.8227C91.2503 39.6867 91.1029 39.5394 90.8989 39.3807C90.6949 39.2221 90.5476 39.0974 90.4569 39.0067C90.0489 38.5987 89.5956 37.9754 89.0969 37.1367C88.8929 36.7287 88.4849 36.2301 87.8729 35.6407C87.2609 35.0287 86.8529 34.5187 86.6489 34.1107C86.0823 34.2241 85.5156 34.3147 84.9489 34.3827C84.9263 36.3321 84.9149 37.7941 84.9149 38.7687C84.9149 39.3354 84.7223 39.7774 84.3369 40.0947C83.9516 40.4121 83.5209 40.5707 83.0449 40.5707C82.5689 40.5707 82.1383 40.4121 81.7529 40.0947C81.3676 39.7774 81.1749 39.3354 81.1749 38.7687C81.1749 38.4741 81.1863 36.7741 81.2089 33.6687C80.8236 32.9887 80.8123 32.3201 81.1749 31.6627C81.1749 29.8041 81.1749 28.5687 81.1749 27.9567C81.1749 27.6394 81.1523 27.1747 81.1069 26.5627C81.0616 25.9281 81.0276 25.3954 81.0049 24.9647C81.0049 24.5114 81.0163 24.0241 81.0389 23.5027C81.0616 22.9587 81.1523 22.4487 81.3109 21.9727C81.4696 21.4967 81.6849 21.0661 81.9569 20.6807C82.5463 19.8647 83.3169 19.2867 84.2689 18.9467C85.2209 18.6067 86.1843 18.5047 87.1589 18.6407C88.1563 18.7541 89.1196 19.0261 90.0489 19.4567C91.0009 19.8647 91.8169 20.3861 92.4969 21.0207C93.6529 22.0861 94.3556 23.5254 94.6049 25.3387C94.8543 27.1521 94.4916 28.7047 93.5169 29.9967C92.6103 31.1301 91.4769 32.0707 90.1169 32.8187C90.2303 32.9321 90.4569 33.1247 90.7969 33.3967C91.1369 33.6461 91.3409 33.8161 91.4089 33.9067C91.6356 34.1334 91.8849 34.4961 92.1569 34.9947C92.4516 35.4934 92.6443 35.8107 92.7349 35.9467C92.9163 36.2187 93.2109 36.5361 93.6189 36.8987C94.0269 37.2614 94.3669 37.6241 94.6389 37.9867C94.9109 38.3267 95.0809 38.7234 95.1489 39.1767ZM84.9489 30.6427C87.0796 30.2801 88.7569 29.4301 89.9809 28.0927C90.4796 27.5487 90.7176 26.8234 90.6949 25.9167C90.6723 25.0101 90.3889 24.2621 89.8449 23.6727C89.3463 23.1061 88.7456 22.7094 88.0429 22.4827C87.3403 22.2334 86.6716 22.2447 86.0369 22.5167C85.4249 22.7661 85.0169 23.2874 84.8129 24.0807C84.7449 24.5794 84.7109 24.9987 84.7109 25.3387C84.7336 25.6561 84.7676 26.1207 84.8129 26.7327C84.8809 27.3221 84.9149 27.7301 84.9149 27.9567C84.9149 28.2287 84.9149 28.5347 84.9149 28.8747C84.9376 29.1921 84.9376 29.4867 84.9149 29.7587C84.9149 30.0081 84.9263 30.3027 84.9489 30.6427ZM102.335 20.9527C102.335 21.5194 102.143 21.9614 101.757 22.2787C101.372 22.5961 100.941 22.7547 100.465 22.7547C100.012 22.7547 99.5814 22.5961 99.1734 22.2787C98.7881 21.9614 98.5954 21.5194 98.5954 20.9527V19.0487C98.5954 18.4821 98.7881 18.0401 99.1734 17.7227C99.5814 17.4054 100.012 17.2467 100.465 17.2467C100.941 17.2467 101.372 17.4054 101.757 17.7227C102.143 18.0401 102.335 18.4821 102.335 19.0487V20.9527ZM103.287 27.9567C103.219 28.6367 103.072 29.6001 102.845 30.8467C102.641 32.0934 102.505 32.9661 102.437 33.4647C102.347 34.2127 102.29 34.9834 102.267 35.7767C102.267 36.5701 102.279 37.5674 102.301 38.7687C102.324 39.9474 102.335 40.7181 102.335 41.0807C102.358 41.5341 102.233 41.9194 101.961 42.2367C101.712 42.5541 101.406 42.7467 101.043 42.8147C100.681 42.8827 100.307 42.8827 99.9214 42.8147C99.5587 42.7467 99.2414 42.5541 98.9694 42.2367C98.7201 41.9194 98.5954 41.5341 98.5954 41.0807C98.5954 40.6727 98.5841 39.9247 98.5614 38.8367C98.5387 37.7261 98.5274 36.7854 98.5274 36.0147C98.5501 35.2214 98.5954 34.4621 98.6634 33.7367C98.7087 33.3061 98.7767 32.8301 98.8674 32.3087C98.9581 31.7647 99.0374 31.2774 99.1054 30.8467C99.1961 30.4161 99.2754 29.9401 99.3434 29.4187C99.4341 28.8747 99.5021 28.3874 99.5474 27.9567C99.6154 27.2087 99.9667 26.6761 100.601 26.3587C101.259 26.0414 101.882 26.0414 102.471 26.3587C103.083 26.6761 103.355 27.2087 103.287 27.9567ZM117.949 28.1267C118.651 28.1494 119.184 28.4667 119.547 29.0787C119.932 29.6907 119.932 30.3141 119.547 30.9487C119.343 31.2661 119.229 31.7987 119.207 32.5467C119.207 33.2947 119.241 33.9861 119.309 34.6207C119.377 35.2327 119.354 35.8221 119.241 36.3887C118.855 38.0207 118.051 39.1087 116.827 39.6527C116.011 39.9474 115.206 40.0494 114.413 39.9587C113.619 39.8454 112.815 39.5621 111.999 39.1087C111.183 38.6327 110.457 38.1227 109.823 37.5787C109.188 37.0121 108.633 36.4227 108.157 35.8107C107.409 34.8361 106.876 33.7141 106.559 32.4447C106.264 31.1754 106.173 29.9061 106.287 28.6367C106.423 27.3674 106.74 26.1661 107.239 25.0327C108.077 23.1061 109.222 21.8027 110.673 21.1227C112.123 20.4201 113.982 20.1027 116.249 20.1707C116.702 20.1934 117.087 20.3407 117.405 20.6127C117.722 20.8847 117.915 21.2021 117.983 21.5647C118.051 21.9274 118.051 22.2901 117.983 22.6527C117.915 23.0154 117.722 23.3214 117.405 23.5707C117.087 23.8201 116.702 23.9334 116.249 23.9107C116.09 23.9107 115.784 23.8994 115.331 23.8767C114.9 23.8314 114.571 23.8201 114.345 23.8427C114.141 23.8427 113.869 23.8654 113.529 23.9107C113.189 23.9334 112.883 24.0127 112.611 24.1487C112.339 24.2621 112.089 24.4321 111.863 24.6587C111.16 25.2707 110.627 26.2907 110.265 27.7187C109.539 30.6654 110.276 33.0454 112.475 34.8587C112.497 34.8587 112.565 34.9154 112.679 35.0287C112.792 35.1194 112.883 35.1874 112.951 35.2327C113.019 35.2781 113.121 35.3574 113.257 35.4707C113.393 35.5614 113.506 35.6407 113.597 35.7087C113.687 35.7767 113.801 35.8561 113.937 35.9467C114.073 36.0147 114.186 36.0714 114.277 36.1167C114.39 36.1621 114.503 36.2074 114.617 36.2527C114.753 36.2754 114.866 36.2867 114.957 36.2867C115.047 36.2867 115.138 36.2641 115.229 36.2187C115.569 36.0827 115.761 35.5954 115.807 34.7567C115.852 33.9181 115.829 33.3401 115.739 33.0227C115.716 32.2294 115.705 31.6967 115.705 31.4247C114.685 31.1074 114.073 30.9261 113.869 30.8807C113.438 30.7674 113.098 30.5521 112.849 30.2347C112.622 29.9174 112.52 29.5774 112.543 29.2147C112.565 28.8294 112.656 28.4781 112.815 28.1607C112.996 27.8207 113.268 27.5601 113.631 27.3787C114.016 27.1974 114.424 27.1634 114.855 27.2767C115.127 27.3221 115.455 27.4241 115.841 27.5827C116.226 27.7187 116.589 27.8434 116.929 27.9567C117.291 28.0474 117.631 28.1041 117.949 28.1267ZM133.638 20.0007C133.638 19.5474 133.762 19.1621 134.012 18.8447C134.284 18.5274 134.601 18.3347 134.964 18.2667C135.326 18.1987 135.689 18.1987 136.052 18.2667C136.437 18.3347 136.754 18.5274 137.004 18.8447C137.253 19.1621 137.378 19.5474 137.378 20.0007V39.2107C137.378 39.7774 137.185 40.2307 136.8 40.5707C136.414 40.8881 135.984 41.0467 135.508 41.0467C135.054 41.0467 134.624 40.8881 134.216 40.5707C133.83 40.2307 133.638 39.7774 133.638 39.2107V33.6007H128.198C128.447 36.0714 128.549 38.2474 128.504 40.1287C128.481 40.6047 128.334 41.0014 128.062 41.3187C127.79 41.6134 127.472 41.8061 127.11 41.8967C126.747 41.9647 126.384 41.9647 126.022 41.8967C125.659 41.8061 125.353 41.6134 125.104 41.3187C124.854 41.0014 124.73 40.6047 124.73 40.1287C124.798 38.3607 124.73 36.4681 124.526 34.4507C124.322 32.4107 124.027 30.1214 123.642 27.5827C123.256 25.0214 122.996 23.1174 122.86 21.8707C122.769 20.9867 123.132 20.4201 123.948 20.1707C124.741 19.9441 125.432 20.1027 126.022 20.6467C126.362 20.9867 126.566 21.3947 126.634 21.8707C126.702 22.6187 127.064 25.2707 127.722 29.8267H133.638V20.0007ZM155.768 19.5587C156.222 19.5587 156.607 19.6947 156.924 19.9667C157.242 20.2161 157.434 20.5221 157.502 20.8847C157.57 21.2474 157.57 21.6214 157.502 22.0067C157.434 22.3694 157.242 22.6754 156.924 22.9247C156.607 23.1741 156.222 23.2987 155.768 23.2987C154.726 23.2987 153.32 23.3894 151.552 23.5707V38.7687C151.552 39.3354 151.36 39.7887 150.974 40.1287C150.589 40.4461 150.158 40.6047 149.682 40.6047C149.206 40.6047 148.776 40.4461 148.39 40.1287C148.005 39.7887 147.812 39.3354 147.812 38.7687V23.8767C145.387 24.0354 143.37 23.9561 141.76 23.6387C141.466 23.5707 141.182 23.4121 140.91 23.1627C140.661 22.8907 140.514 22.6074 140.468 22.3127C140.446 22.2674 140.423 22.2107 140.4 22.1427C140.4 22.0521 140.389 21.9841 140.366 21.9387C140.276 21.4627 140.332 21.0321 140.536 20.6467C140.763 20.2614 141.046 19.9894 141.386 19.8307C141.749 19.6494 142.134 19.5814 142.542 19.6267C142.973 19.6721 143.313 19.8307 143.562 20.1027C144.832 20.2614 146.724 20.2161 149.24 19.9667C152.187 19.6947 154.363 19.5587 155.768 19.5587ZM168.114 31.5607C169.474 33.3287 170.075 35.1307 169.916 36.9667C169.848 37.6694 169.644 38.3154 169.304 38.9047C168.964 39.4714 168.545 39.9474 168.046 40.3327C167.547 40.7181 166.981 41.0467 166.346 41.3187C165.711 41.5681 165.065 41.7494 164.408 41.8627C163.751 41.9534 163.082 41.9987 162.402 41.9987C161.949 41.9987 161.563 41.8741 161.246 41.6247C160.929 41.3527 160.736 41.0354 160.668 40.6727C160.6 40.3101 160.6 39.9474 160.668 39.5847C160.736 39.1994 160.929 38.8821 161.246 38.6327C161.563 38.3834 161.949 38.2587 162.402 38.2587C163.966 38.2587 164.997 37.7601 165.496 36.7627C166.017 35.7654 165.768 34.6207 164.748 33.3287C164.431 32.9434 163.887 32.4107 163.116 31.7307C162.345 31.0281 161.801 30.4614 161.484 30.0307C160.147 28.3307 159.478 26.4721 159.478 24.4547C159.478 22.2561 160.203 20.5787 161.654 19.4227C163.105 18.2667 164.895 17.8814 167.026 18.2667C167.321 18.3121 167.593 18.4707 167.842 18.7427C168.114 18.9921 168.284 19.2641 168.352 19.5587C168.352 19.6041 168.352 19.6494 168.352 19.6947C168.375 19.7401 168.386 19.7854 168.386 19.8307C168.409 19.8761 168.42 19.9214 168.42 19.9667C168.601 20.8281 168.329 21.4854 167.604 21.9387C166.901 22.3921 166.233 22.4374 165.598 22.0747C163.195 23.1174 162.595 24.6927 163.796 26.8007C164.317 27.6621 164.963 28.4101 165.734 29.0447C165.802 29.1127 166.142 29.4641 166.754 30.0987C167.389 30.7107 167.842 31.1981 168.114 31.5607ZM176.843 20.9527C176.843 21.5194 176.651 21.9614 176.265 22.2787C175.88 22.5961 175.449 22.7547 174.973 22.7547C174.52 22.7547 174.089 22.5961 173.681 22.2787C173.296 21.9614 173.103 21.5194 173.103 20.9527V19.0487C173.103 18.4821 173.296 18.0401 173.681 17.7227C174.089 17.4054 174.52 17.2467 174.973 17.2467C175.449 17.2467 175.88 17.4054 176.265 17.7227C176.651 18.0401 176.843 18.4821 176.843 19.0487V20.9527ZM177.795 27.9567C177.727 28.6367 177.58 29.6001 177.353 30.8467C177.149 32.0934 177.013 32.9661 176.945 33.4647C176.855 34.2127 176.798 34.9834 176.775 35.7767C176.775 36.5701 176.787 37.5674 176.809 38.7687C176.832 39.9474 176.843 40.7181 176.843 41.0807C176.866 41.5341 176.741 41.9194 176.469 42.2367C176.22 42.5541 175.914 42.7467 175.551 42.8147C175.189 42.8827 174.815 42.8827 174.429 42.8147C174.067 42.7467 173.749 42.5541 173.477 42.2367C173.228 41.9194 173.103 41.5341 173.103 41.0807C173.103 40.6727 173.092 39.9247 173.069 38.8367C173.047 37.7261 173.035 36.7854 173.035 36.0147C173.058 35.2214 173.103 34.4621 173.171 33.7367C173.217 33.3061 173.285 32.8301 173.375 32.3087C173.466 31.7647 173.545 31.2774 173.613 30.8467C173.704 30.4161 173.783 29.9401 173.851 29.4187C173.942 28.8747 174.01 28.3874 174.055 27.9567C174.123 27.2087 174.475 26.6761 175.109 26.3587C175.767 26.0414 176.39 26.0414 176.979 26.3587C177.591 26.6761 177.863 27.2087 177.795 27.9567ZM194.564 24.3187C195.108 25.2027 195.403 26.3134 195.448 27.6507C195.516 28.9881 195.414 30.2574 195.142 31.4587C194.87 32.6374 194.519 33.7481 194.088 34.7907C193.93 35.1761 193.737 35.5387 193.51 35.8787C193.306 36.1961 193.114 36.4907 192.932 36.7627C192.751 37.0347 192.502 37.3067 192.184 37.5787C191.89 37.8281 191.64 38.0434 191.436 38.2247C191.255 38.3834 190.96 38.5761 190.552 38.8027C190.167 39.0067 189.872 39.1654 189.668 39.2787C189.487 39.3694 189.158 39.5167 188.682 39.7207C188.206 39.9021 187.889 40.0267 187.73 40.0947C187.572 40.1627 187.209 40.2987 186.642 40.5027C186.098 40.7067 185.747 40.8427 185.588 40.9107C185.226 41.0467 184.84 41.0241 184.432 40.8427C184.047 40.6614 183.73 40.3894 183.48 40.0267C183.004 39.3241 182.664 38.5761 182.46 37.7827C182.279 36.9667 182.143 35.8561 182.052 34.4507C181.984 33.0454 181.939 32.2067 181.916 31.9347C181.486 28.1494 181.27 24.6587 181.27 21.4627C181.27 20.5561 181.712 19.9781 182.596 19.7287C183.322 19.2074 184.33 19.0374 185.622 19.2187C187.39 19.4907 189.113 20.0687 190.79 20.9527C192.49 21.8367 193.748 22.9587 194.564 24.3187ZM190.518 33.5327C191.334 31.9687 191.686 30.0987 191.572 27.9227C191.527 26.7667 191.096 25.8487 190.28 25.1687C189.464 24.4661 188.388 23.8881 187.05 23.4347C186.937 23.4121 186.801 23.3894 186.642 23.3667C186.484 23.3214 186.336 23.2874 186.2 23.2647C186.064 23.2421 185.917 23.2081 185.758 23.1627C185.6 23.1174 185.475 23.0607 185.384 22.9927C185.362 22.9927 185.271 22.9814 185.112 22.9587C185.112 22.9587 185.101 22.9587 185.078 22.9587C185.078 22.9587 185.078 22.9701 185.078 22.9927C185.124 25.4407 185.26 27.8547 185.486 30.2347C185.532 30.6201 185.566 31.2661 185.588 32.1727C185.634 33.0794 185.69 33.9294 185.758 34.7227C185.826 35.4934 185.94 36.1734 186.098 36.7627C186.824 36.4907 187.402 36.2527 187.832 36.0487C188.286 35.8447 188.762 35.5274 189.26 35.0967C189.782 34.6661 190.201 34.1447 190.518 33.5327ZM208.594 37.4767C209.048 37.4767 209.433 37.6014 209.75 37.8507C210.068 38.0774 210.26 38.3721 210.328 38.7347C210.396 39.0974 210.396 39.4714 210.328 39.8567C210.26 40.2194 210.068 40.5367 209.75 40.8087C209.433 41.0807 209.048 41.2167 208.594 41.2167C208.3 41.2394 207.858 41.2734 207.268 41.3187C206.679 41.3414 206.203 41.3641 205.84 41.3867C205.478 41.4094 205.024 41.4207 204.48 41.4207C203.959 41.3981 203.517 41.3527 203.154 41.2847C202.814 41.2167 202.429 41.1034 201.998 40.9447C201.59 40.7634 201.25 40.5481 200.978 40.2987C200.706 40.0494 200.446 39.7321 200.196 39.3467C199.97 38.9387 199.788 38.4627 199.652 37.9187C199.471 37.0574 199.403 35.8447 199.448 34.2807C199.494 32.7167 199.482 31.4927 199.414 30.6087C199.346 29.9287 199.312 29.1807 199.312 28.3647C199.312 27.5261 199.324 26.7554 199.346 26.0527C199.392 25.3274 199.369 24.5681 199.278 23.7747C199.21 22.9587 199.063 22.2334 198.836 21.5987C198.678 21.1907 198.644 20.8394 198.734 20.5447C198.848 20.2274 199.029 19.9781 199.278 19.7967C199.55 19.5927 199.856 19.4567 200.196 19.3887C200.536 18.9581 200.99 18.7427 201.556 18.7427C202.78 18.7427 204.072 18.7427 205.432 18.7427C205.772 18.7201 206.101 18.7427 206.418 18.8107C206.758 18.8561 207.166 18.9354 207.642 19.0487C208.141 19.1621 208.47 19.2414 208.628 19.2867C209.376 19.4454 209.818 19.8647 209.954 20.5447C210.09 21.2021 209.92 21.8027 209.444 22.3467C208.968 22.8681 208.368 23.0494 207.642 22.8907C207.506 22.8681 207.291 22.8227 206.996 22.7547C206.702 22.6867 206.475 22.6414 206.316 22.6187C206.158 22.5734 205.954 22.5394 205.704 22.5167C205.478 22.4941 205.251 22.4827 205.024 22.4827C204.707 22.5054 203.993 22.5054 202.882 22.4827C202.973 23.1854 203.007 24.4434 202.984 26.2567C202.962 26.7781 202.984 27.4014 203.052 28.1267H205.772C206.339 28.1267 206.781 28.3194 207.098 28.7047C207.438 29.0901 207.608 29.5207 207.608 29.9967C207.608 30.4727 207.438 30.9034 207.098 31.2887C206.781 31.6741 206.339 31.8667 205.772 31.8667H203.392C203.392 31.9121 203.392 31.9687 203.392 32.0367C203.415 32.0821 203.426 32.1387 203.426 32.2067C203.426 32.2521 203.426 32.3087 203.426 32.3767C203.426 32.4221 203.426 32.4674 203.426 32.5127C203.449 32.6487 203.438 32.8641 203.392 33.1587C203.37 33.4534 203.336 33.7594 203.29 34.0767C203.245 34.3941 203.2 34.7454 203.154 35.1307C203.132 35.5161 203.12 35.8674 203.12 36.1847C203.12 36.5021 203.154 36.7967 203.222 37.0687C203.29 37.3181 203.392 37.4994 203.528 37.6127C203.732 37.7714 204.072 37.8621 204.548 37.8847C205.024 37.9074 205.489 37.8961 205.942 37.8507C206.418 37.7827 206.928 37.7147 207.472 37.6467C208.016 37.5561 208.39 37.4994 208.594 37.4767Z" fill="#FF6401"/>
<circle cx="239.861" cy="30.9308" r="4" fill="#D9D9D9"/>
<circle cx="259.861" cy="30.9308" r="4" fill="#D9D9D9"/>
<circle cx="279.861" cy="30.9308" r="4" fill="#D9D9D9"/>
<g clip-path="url(#clip0_195_1632)">
<path d="M351.895 45.3746V16.0402H355.44V42.2206H369.048V45.3718L351.895 45.3746ZM372.471 45.3746V23.3718H375.843V45.3718L372.471 45.3746ZM374.184 19.706C373.551 19.7151 372.938 19.4736 372.481 19.0338C372.257 18.8284 372.079 18.5778 371.959 18.2985C371.839 18.0193 371.779 17.7177 371.784 17.4136C371.784 16.7834 372.017 16.2442 372.484 15.796C372.94 15.3559 373.551 15.1135 374.184 15.1212C374.84 15.1212 375.402 15.3461 375.872 15.796C376.347 16.2442 376.585 16.7834 376.585 17.4136C376.585 18.0438 376.347 18.5839 375.872 19.0338C375.649 19.2521 375.385 19.4238 375.095 19.5392C374.806 19.6546 374.496 19.7113 374.184 19.706ZM389.273 54.082C387.643 54.082 386.242 53.872 385.07 53.4519C383.999 53.098 383.005 52.5439 382.14 51.8186C381.415 51.2054 380.792 50.4804 380.295 49.6706L382.984 47.7799C383.288 48.1806 383.674 48.6393 384.142 49.1559C384.609 49.681 385.246 50.1344 386.055 50.516C386.876 50.9065 387.949 51.1015 389.273 51.1015C391.045 51.1015 392.507 50.6727 393.66 49.815C394.813 48.9554 395.389 47.6082 395.389 45.7736V41.3069H395.104C394.857 41.7095 394.505 42.2067 394.047 42.7985C393.599 43.3814 392.951 43.9013 392.103 44.3583C391.265 44.8082 390.131 45.0332 388.702 45.0332C386.929 45.0332 385.337 44.6129 383.927 43.7727C382.526 42.9323 381.416 41.7095 380.597 40.1044C379.786 38.5025 379.381 36.555 379.381 34.2614C379.381 32.0085 379.776 30.0461 380.568 28.3742C381.359 26.6936 382.46 25.3947 383.87 24.4773C385.28 23.5513 386.909 23.0882 388.759 23.0882C390.188 23.0882 391.322 23.3272 392.161 23.8051C393.006 24.2725 393.654 24.8065 394.105 25.4069C394.561 26.0021 394.913 26.4897 395.161 26.8696H395.505V23.3771H398.764V46.0074C398.764 47.8981 398.336 49.4351 397.478 50.6185C396.629 51.8107 395.484 52.6842 394.045 53.2391C392.522 53.8219 390.903 54.1064 389.273 54.082ZM389.158 41.995C390.512 41.995 391.656 41.6851 392.591 41.0654C393.523 40.4438 394.233 39.5511 394.718 38.3868C395.204 37.2209 395.447 35.8267 395.447 34.2037C395.447 32.6194 395.208 31.2207 394.731 30.0076C394.256 28.7944 393.551 27.8438 392.617 27.1558C391.684 26.4678 390.531 26.1247 389.158 26.1265C387.729 26.1265 386.538 26.4888 385.586 27.2136C384.643 27.9383 383.933 28.9126 383.456 30.1362C382.975 31.4375 382.738 32.8163 382.756 34.2037C382.756 35.7304 382.993 37.0817 383.469 38.2583C383.956 39.4223 384.672 40.3387 385.615 41.0077C386.567 41.6657 387.748 41.995 389.158 41.995ZM406.702 32.1397V45.3746H403.329V16.0402H406.702V26.8092H406.988C407.501 25.673 408.273 24.7715 409.304 24.1045C410.342 23.4252 411.723 23.0856 413.447 23.0856C414.944 23.0856 416.255 23.3867 417.378 23.9889C418.503 24.5806 419.375 25.4927 419.996 26.7252C420.624 27.9471 420.939 29.5034 420.939 31.394V45.3718H417.564V31.6225C417.564 29.8754 417.111 28.5239 416.206 27.5681C415.31 26.6052 414.067 26.1238 412.477 26.1238C411.372 26.1238 410.38 26.3575 409.503 26.8249C408.637 27.2924 407.951 27.9751 407.446 28.8732C406.95 29.7712 406.702 30.8601 406.702 32.1397ZM435.048 23.3718V26.2367H423.67V23.3745L435.048 23.3718ZM426.987 18.1016H430.36V39.0697C430.36 40.0256 430.498 40.7424 430.774 41.2202C431.017 41.6512 431.401 41.9852 431.861 42.1657C432.307 42.318 432.778 42.394 433.276 42.394C433.647 42.394 433.951 42.3749 434.191 42.3363L434.762 42.2234L435.449 45.2589C435.135 45.365 434.814 45.4509 434.489 45.5162C433.977 45.6218 433.456 45.6702 432.933 45.6606C431.965 45.6568 431.009 45.4465 430.129 45.0436C429.222 44.6345 428.442 43.9866 427.873 43.1688C427.282 42.3284 426.987 41.2683 426.987 39.9887V18.1016ZM447.482 45.8313C445.366 45.8313 443.541 45.3639 442.005 44.4291C440.476 43.4757 439.251 42.1033 438.475 40.4744C437.658 38.7763 437.248 36.8 437.246 34.5451C437.246 32.292 437.657 30.3052 438.478 28.5843C439.306 26.8582 440.459 25.5128 441.937 24.5483C443.422 23.5732 445.156 23.0856 447.139 23.0856C448.281 23.0856 449.41 23.2764 450.524 23.6581C451.64 24.0414 452.656 24.6629 453.569 25.5225C454.485 26.3698 455.214 27.4963 455.757 28.9021C456.299 30.3043 456.57 32.0322 456.57 34.0856V35.5195H439.649V32.5967H453.142C453.142 31.3538 452.894 30.2465 452.398 29.2749C451.933 28.324 451.21 27.5239 450.312 26.9667C449.416 26.4048 448.358 26.1238 447.139 26.1238C445.793 26.1238 444.631 26.4573 443.651 27.1243C442.678 27.7843 441.929 28.6438 441.405 29.7029C440.881 30.7638 440.619 31.9 440.619 33.1114V35.0598C440.619 36.7229 440.905 38.1322 441.478 39.2877C442.06 40.4306 442.865 41.3042 443.894 41.9083C444.922 42.4999 446.118 42.7958 447.482 42.7958C448.368 42.7958 449.168 42.6716 449.882 42.423C450.606 42.1657 451.23 41.7831 451.756 41.2755C452.28 40.7607 452.684 40.1219 452.969 39.3585L456.229 40.275C455.885 41.3813 455.308 42.3547 454.5 43.1951C453.689 44.0265 452.688 44.6761 451.496 45.1435C450.211 45.6152 448.851 45.8483 447.482 45.8313ZM460.094 45.3746V23.3718H463.351V26.6963H463.58C463.981 25.6074 464.706 24.7233 465.754 24.0441C466.803 23.3666 467.984 23.0279 469.297 23.0279C469.546 23.0279 469.855 23.0331 470.228 23.0436C470.6 23.0524 470.881 23.0664 471.071 23.0856V26.5256C470.811 26.4718 470.549 26.4281 470.285 26.3943C469.864 26.3265 469.438 26.2931 469.012 26.2945C467.946 26.2945 466.994 26.5186 466.155 26.9667C465.326 27.4062 464.668 28.018 464.182 28.8023C463.705 29.5725 463.467 30.4557 463.467 31.4518V45.3746H460.094Z" fill="black"/>
<path d="M307.861 57.1834L320.413 46.454V4.67548L307.861 15.9906V57.1834Z" fill="black"/>
<path d="M324.24 57.1862L336.792 46.4776V29.8371L324.24 41.1206V57.1862Z" fill="black"/>
</g>
<defs>
<clipPath id="clip0_195_1632">
<rect width="163.275" height="52.5107" fill="white" transform="translate(307.861 4.67548)"/>
</clipPath>
</defs>
</svg>
